<svg width="16" height="16" viewBox="0 0 16 16" fill="none" xmlns="http://www.w3.org/2000/svg">
<g clip-path="url(#clip0_1116_3524)">
<path d="M8.00065 2C8.4451 3.77778 9.33398 5.22222 10.6673 6.33333C12.0007 7.44444 12.6673 8.66667 12.6673 10C12.6673 12.5756 10.5763 14.6667 8.00065 14.6667C5.42505 14.6667 3.33398 12.5756 3.33398 10C3.33398 9.27877 3.56791 8.57699 4.00065 8C4.00065 8.91986 4.74746 9.66667 5.66732 9.66667C6.58718 9.66667 7.33398 8.91986 7.33398 8C7.33398 6.66667 6.33398 6 6.33398 4.66667C6.33398 3.77778 6.88954 2.88889 8.00065 2" stroke="#F59E0B" stroke-width="2" stroke-linecap="round" stroke-linejoin="round"/>
</g>
<defs>
<clipPath id="clip0_1116_3524">
<rect width="16" height="16" fill="white"/>
</clipPath>
</defs>
</svg>
